Coordinates
nRows=289
nColumns=2
inDegrees=yes
endheader
time	ankle_angle_r	
4.35758	  0.305176	
4.39085	  0.228882	
4.42411	  0.259399	
4.45738	  0.305176	
4.49064	  0.289917	
4.5239	  0.305176	
4.55717	  0.274658	
4.59043	  0.213623	
4.6237	  0.305176	
4.65696	  0.228882	
4.69022	  0.213623	
4.72349	  0.274658	
4.75675	  0.167847	
4.79002	  0.183105	
4.82328	  0.183105	
4.85654	  0.106812	
4.88981	  0.152588	
4.92307	  0.213623	
4.95634	  0.106812	
4.9896	  0.167847	
5.02286	  0.198364	
5.05613	  0.106812	
5.08939	  0.122070	
5.12266	  0.198364	
5.15592	  0.106812	
5.18918	  0.091553	
5.22245	  0.183105	
5.25571	  0.122070	
5.28898	  0.106812	
5.32224	  0.167847	
5.3555	  0.152588	
5.38877	  0.091553	
5.42203	  0.183105	
5.4553	  0.183105	
5.48856	  0.106812	
5.52182	  0.259399	
5.55509	  0.183105	
5.58835	  0.183105	
5.62162	  0.274658	
5.65488	  0.198364	
5.68814	  0.213623	
5.72141	  0.289917	
5.75467	  0.213623	
5.78794	  0.289917	
5.8212	  0.335693	
5.85446	  0.289917	
5.88773	  0.366211	
5.92099	  0.320435	
5.95426	  0.259399	
5.98752	  0.320435	
6.02078	  0.335693	
6.05405	  0.274658	
6.08731	  0.320435	
6.12058	  0.335693	
6.15384	  0.244141	
6.1871	  0.335693	
6.22037	  0.289917	
6.25363	  0.228882	
6.2869	  0.228882	
6.32016	  0.259399	
6.35342	  0.228882	
6.38669	  0.228882	
6.41995	  0.274658	
6.45322	  0.183105	
6.48648	  0.228882	
6.51974	  0.244141	
6.55301	  0.167847	
6.58627	  0.244141	
6.61954	  0.244141	
6.6528	  0.167847	
6.68606	  0.213623	
6.71933	  0.244141	
6.75259	  0.183105	
6.78586	  0.213623	
6.81912	  0.213623	
6.85238	  0.183105	
6.88565	  0.213623	
6.91891	  0.228882	
6.95218	  0.183105	
6.98544	  0.289917	
7.0187	  0.228882	
7.05197	  0.213623	
7.08523	  0.228882	
7.1185	  0.213623	
7.15176	  0.213623	
7.18502	  0.289917	
7.21829	  0.198364	
7.25155	  0.228882	
7.28482	  0.289917	
7.31808	  0.213623	
7.35134	  0.228882	
7.38461	  0.274658	
7.41787	  0.244141	
7.45114	  0.213623	
7.4844	  0.289917	
7.51766	  0.198364	
7.55093	  0.228882	
7.58419	  0.274658	
7.61746	  0.213623	
7.65072	  0.183105	
7.68398	  0.228882	
7.71725	  0.183105	
7.75051	  0.137329	
7.78378	  0.213623	
7.81704	  0.198364	
7.8503	  0.106812	
7.88357	  0.198364	
7.91683	  0.137329	
7.9501	  0.106812	
7.98336	  0.213623	
8.01662	  0.167847	
8.04989	  0.122070	
8.08315	  0.198364	
8.11642	  0.167847	
8.14968	  0.137329	
8.18294	  0.198364	
8.21621	  0.137329	
8.24947	  0.198364	
8.28274	  0.183105	
8.316	  0.137329	
8.34926	  0.198364	
8.38253	  0.198364	
8.41579	  0.152588	
8.44906	  0.244141	
8.48232	  0.198364	
8.51558	  0.213623	
8.54885	  0.289917	
8.58211	  0.289917	
8.61538	  0.259399	
8.64864	  0.320435	
8.6819	  0.335693	
8.71517	  0.259399	
8.74843	  0.305176	
8.7817	  0.320435	
8.81496	  0.289917	
8.84822	  0.350952	
8.88149	  0.350952	
8.91475	  0.289917	
8.94802	  0.350952	
8.98128	  0.381470	
9.01454	  0.289917	
9.04781	  0.335693	
9.08107	  0.350952	
9.11434	  0.289917	
9.1476	  0.228882	
9.18086	  0.289917	
9.21413	  0.198364	
9.24739	  0.213623	
9.28066	  0.289917	
9.31392	  0.167847	
9.34718	  0.213623	
9.38045	  0.213623	
9.41371	  0.167847	
9.44698	  0.198364	
9.48024	  0.183105	
9.5135	  0.137329	
9.54677	  0.228882	
9.58003	  0.167847	
9.6133	  0.167847	
9.64656	  0.183105	
9.67982	  0.106812	
9.71309	  0.137329	
9.74635	  0.213623	
9.77962	  0.152588	
9.81288	  0.106812	
9.84614	  0.183105	
9.87941	  0.106812	
9.91267	  0.167847	
9.94594	  0.183105	
9.9792	  0.137329	
10.0125	  0.152588	
10.0457	  0.259399	
10.079	  0.152588	
10.1123	  0.167847	
10.1455	  0.259399	
10.1788	  0.198364	
10.212	  0.198364	
10.2453	  0.289917	
10.2786	  0.213623	
10.3118	  0.198364	
10.3451	  0.305176	
10.3784	  0.213623	
10.4116	  0.183105	
10.4449	  0.289917	
10.4782	  0.274658	
10.5114	  0.213623	
10.5447	  0.274658	
10.578	  0.259399	
10.6112	  0.244141	
10.6445	  0.289917	
10.6777	  0.167847	
10.711	  0.198364	
10.7443	  0.213623	
10.7775	  0.152588	
10.8108	  0.213623	
10.8441	  0.244141	
10.8773	  0.167847	
10.9106	  0.228882	
10.9439	  0.244141	
10.9771	  0.198364	
11.0104	  0.244141	
11.0436	  0.228882	
11.0769	  0.167847	
11.1102	  0.244141	
11.1434	  0.228882	
11.1767	  0.167847	
11.21	  0.244141	
11.2432	  0.259399	
11.2765	  0.183105	
11.3098	  0.274658	
11.343	  0.274658	
11.3763	  0.228882	
11.4096	  0.259399	
11.4428	  0.289917	
11.4761	  0.228882	
11.5093	  0.259399	
11.5426	  0.289917	
11.5759	  0.228882	
11.6091	  0.320435	
11.6424	  0.305176	
11.6757	  0.228882	
11.7089	  0.305176	
11.7422	  0.320435	
11.7755	  0.259399	
11.8087	  0.366211	
11.842	  0.274658	
11.8752	  0.244141	
11.9085	  0.289917	
11.9418	  0.289917	
11.975	  0.259399	
12.0083	  0.289917	
12.0416	  0.228882	
12.0748	  0.228882	
12.1081	  0.259399	
12.1414	  0.244141	
12.1746	  0.183105	
12.2079	  0.228882	
12.2412	  0.167847	
12.2744	  0.137329	
12.3077	  0.228882	
12.3409	  0.091553	
12.3742	  0.106812	
12.4075	  0.198364	
12.4407	  0.091553	
12.474	  0.106812	
12.5073	  0.167847	
12.5405	  0.106812	
12.5738	  0.106812	
12.6071	  0.183105	
12.6403	  0.137329	
12.6736	  0.076294	
12.7068	  0.167847	
12.7401	  0.152588	
12.7734	  0.122070	
12.8066	  0.167847	
12.8399	  0.152588	
12.8732	  0.137329	
12.9064	  0.228882	
12.9397	  0.198364	
12.973	  0.167847	
13.0062	  0.289917	
13.0395	  0.213623	
13.0728	  0.259399	
13.106	  0.259399	
13.1393	  0.198364	
13.1725	  0.259399	
13.2058	  0.259399	
13.2391	  0.259399	
13.2723	  0.320435	
13.3056	  0.320435	
13.3389	  0.259399	
13.3721	  0.320435	
13.4054	  0.320435	
13.4387	  0.274658	
13.4719	  0.320435	
13.5052	  0.305176	
13.5384	  0.244141	
13.5717	  0.350952	
13.605	  0.320435	
13.6382	  0.213623	
13.6715	  0.274658	
13.7048	  0.305176	
13.738	  0.198364	
13.7713	  0.259399	
13.8046	  0.228882	
13.8378	  0.152588	
13.8711	  0.259399	
13.9044	  0.274658	
13.9376	  0.167847	
